<svg width="100" height="34" viewBox="0 0 100 34" fill="none" xmlns="http://www.w3.org/2000/svg">
<rect width="100" height="34" rx="17" fill="#006FAD"/>
<path d="M16.5652 22H18.4272V17.674C18.4272 16.694 18.2592 15.252 18.1612 14.272H18.2172L19.0432 16.708L20.6532 21.062H21.8432L23.4392 16.708L24.2792 14.272H24.3352C24.2372 15.252 24.0832 16.694 24.0832 17.674V22H25.9732V11.64H23.6772L21.9552 16.484C21.7312 17.128 21.5492 17.814 21.3252 18.486H21.2552C21.0452 17.814 20.8492 17.128 20.6252 16.484L18.8612 11.64H16.5652V22Z" fill="white"/>
<path d="M31.3404 22.196C32.3204 22.196 33.3144 21.86 34.0844 21.328L33.3844 20.068C32.8244 20.418 32.2644 20.614 31.6204 20.614C30.4584 20.614 29.6184 19.942 29.4504 18.654H34.2804C34.3364 18.472 34.3784 18.094 34.3784 17.716C34.3784 15.546 33.2584 13.964 31.1024 13.964C29.2264 13.964 27.4484 15.546 27.4484 18.094C27.4484 20.67 29.1564 22.196 31.3404 22.196ZM29.4224 17.296C29.5764 16.148 30.3044 15.56 31.1304 15.56C32.1384 15.56 32.6144 16.232 32.6144 17.296H29.4224Z" fill="white"/>
<path d="M37.4058 22.196C38.3018 22.196 39.0858 21.748 39.7718 21.16H39.8138L39.9678 22H41.6478V17.422C41.6478 15.154 40.6258 13.964 38.6378 13.964C37.4058 13.964 36.2858 14.426 35.3618 15L36.1038 16.358C36.8318 15.938 37.5318 15.616 38.2598 15.616C39.2258 15.616 39.5618 16.204 39.5898 16.974C36.4398 17.31 35.0818 18.192 35.0818 19.872C35.0818 21.202 36.0058 22.196 37.4058 22.196ZM38.0778 20.586C37.4758 20.586 37.0418 20.32 37.0418 19.704C37.0418 19.004 37.6858 18.486 39.5898 18.234V19.816C39.0998 20.306 38.6658 20.586 38.0778 20.586Z" fill="white"/>
<path d="M45.5772 22.196C47.6213 22.196 48.6992 21.09 48.6992 19.718C48.6992 18.262 47.5512 17.744 46.5152 17.352C45.6892 17.044 44.9192 16.834 44.9192 16.26C44.9192 15.812 45.2552 15.504 45.9552 15.504C46.5433 15.504 47.0892 15.784 47.6492 16.176L48.5732 14.93C47.9153 14.44 47.0472 13.964 45.8993 13.964C44.1353 13.964 42.9872 14.958 42.9872 16.372C42.9872 17.674 44.1353 18.276 45.1292 18.654C45.9552 18.976 46.7672 19.242 46.7672 19.83C46.7672 20.32 46.4172 20.656 45.6332 20.656C44.9052 20.656 44.2332 20.348 43.5332 19.802L42.5952 21.09C43.3652 21.734 44.5273 22.196 45.5772 22.196Z" fill="white"/>
<path d="M52.1849 22.196C53.2629 22.196 54.0189 21.678 54.6909 20.88H54.7469L54.9009 22H56.5809V14.16H54.5229V19.452C53.9909 20.152 53.5709 20.432 52.9269 20.432C52.1709 20.432 51.8349 20.012 51.8349 18.794V14.16H49.7769V19.06C49.7769 21.02 50.5049 22.196 52.1849 22.196Z" fill="white"/>
<path d="M58.367 22H60.411V17.324C60.859 16.19 61.601 15.784 62.217 15.784C62.539 15.784 62.763 15.826 63.029 15.91L63.393 14.132C63.155 14.034 62.903 13.964 62.469 13.964C61.657 13.964 60.817 14.524 60.243 15.546H60.187L60.047 14.16H58.367V22Z" fill="white"/>
<path d="M64.0566 22H66.1006V14.16H64.0566V22ZM65.0926 12.9C65.7926 12.9 66.3106 12.424 66.3106 11.78C66.3106 11.108 65.7926 10.66 65.0926 10.66C64.3786 10.66 63.8606 11.108 63.8606 11.78C63.8606 12.424 64.3786 12.9 65.0926 12.9Z" fill="white"/>
<path d="M67.9006 22H69.9446V16.61C70.5326 16.036 70.9386 15.728 71.5826 15.728C72.3526 15.728 72.6886 16.162 72.6886 17.366V22H74.7466V17.114C74.7466 15.14 74.0186 13.964 72.3246 13.964C71.2606 13.964 70.4626 14.524 69.7766 15.196H69.7206L69.5806 14.16H67.9006V22Z" fill="white"/>
<path d="M79.2193 25.402C81.8373 25.402 83.4753 24.198 83.4753 22.616C83.4753 21.244 82.4533 20.656 80.5633 20.656H79.2333C78.3093 20.656 78.0013 20.432 78.0013 20.012C78.0013 19.704 78.1133 19.522 78.3373 19.34C78.6733 19.452 79.0373 19.522 79.3453 19.522C81.0253 19.522 82.3693 18.626 82.3693 16.862C82.3693 16.372 82.2153 15.938 82.0053 15.672H83.3493V14.16H80.5213C80.1993 14.048 79.7793 13.964 79.3453 13.964C77.6793 13.964 76.1813 14.958 76.1813 16.806C76.1813 17.716 76.6853 18.458 77.2173 18.85V18.906C76.7553 19.242 76.3493 19.788 76.3493 20.376C76.3493 21.02 76.6573 21.426 77.0633 21.692V21.762C76.3493 22.168 75.9433 22.728 75.9433 23.386C75.9433 24.772 77.3713 25.402 79.2193 25.402ZM79.3453 18.248C78.6593 18.248 78.1133 17.73 78.1133 16.806C78.1133 15.882 78.6453 15.364 79.3453 15.364C80.0453 15.364 80.5633 15.882 80.5633 16.806C80.5633 17.73 80.0313 18.248 79.3453 18.248ZM79.5273 24.1C78.3793 24.1 77.6513 23.722 77.6513 23.064C77.6513 22.742 77.8193 22.434 78.1693 22.154C78.4493 22.224 78.7853 22.266 79.2613 22.266H80.2133C81.0533 22.266 81.5153 22.406 81.5153 22.966C81.5153 23.582 80.7033 24.1 79.5273 24.1Z" fill="white"/>
</svg>
