<svg width="100" height="34" viewBox="0 0 100 34" fill="none" xmlns="http://www.w3.org/2000/svg">
<rect width="100" height="34" rx="17" fill="#006FAD"/>
<path d="M13.2983 22H15.3703V18.318H16.7563C18.9823 18.318 20.7603 17.254 20.7603 14.888C20.7603 12.438 18.9963 11.64 16.7003 11.64H13.2983V22ZM15.3703 16.68V13.278H16.5463C17.9743 13.278 18.7303 13.684 18.7303 14.888C18.7303 16.078 18.0443 16.68 16.6163 16.68H15.3703Z" fill="white"/>
<path d="M22.0602 22H24.1042V17.324C24.5522 16.19 25.2942 15.784 25.9102 15.784C26.2322 15.784 26.4562 15.826 26.7222 15.91L27.0862 14.132C26.8482 14.034 26.5962 13.964 26.1622 13.964C25.3502 13.964 24.5102 14.524 23.9362 15.546H23.8802L23.7402 14.16H22.0602V22Z" fill="white"/>
<path d="M30.9878 22.196C31.9678 22.196 32.9618 21.86 33.7318 21.328L33.0318 20.068C32.4718 20.418 31.9118 20.614 31.2678 20.614C30.1058 20.614 29.2658 19.942 29.0978 18.654H33.9278C33.9838 18.472 34.0258 18.094 34.0258 17.716C34.0258 15.546 32.9058 13.964 30.7498 13.964C28.8738 13.964 27.0958 15.546 27.0958 18.094C27.0958 20.67 28.8038 22.196 30.9878 22.196ZM29.0698 17.296C29.2238 16.148 29.9518 15.56 30.7778 15.56C31.7858 15.56 32.2618 16.232 32.2618 17.296H29.0698Z" fill="white"/>
<path d="M35.3126 25.01H37.3566V22.63L37.3006 21.342C37.9026 21.888 38.5606 22.196 39.2466 22.196C40.9686 22.196 42.5786 20.642 42.5786 17.954C42.5786 15.546 41.4306 13.964 39.4986 13.964C38.6586 13.964 37.8466 14.412 37.1886 14.972H37.1326L36.9926 14.16H35.3126V25.01ZM38.7846 20.502C38.3646 20.502 37.8606 20.348 37.3566 19.914V16.47C37.9026 15.924 38.3786 15.658 38.9106 15.658C39.9886 15.658 40.4646 16.484 40.4646 17.982C40.4646 19.69 39.7366 20.502 38.7846 20.502Z" fill="white"/>
<path d="M45.6549 22.196C46.5509 22.196 47.3349 21.748 48.021 21.16H48.063L48.2169 22H49.8969V17.422C49.8969 15.154 48.875 13.964 46.887 13.964C45.655 13.964 44.5349 14.426 43.6109 15L44.3529 16.358C45.0809 15.938 45.781 15.616 46.509 15.616C47.475 15.616 47.811 16.204 47.839 16.974C44.689 17.31 43.3309 18.192 43.3309 19.872C43.3309 21.202 44.2549 22.196 45.6549 22.196ZM46.327 20.586C45.7249 20.586 45.2909 20.32 45.2909 19.704C45.2909 19.004 45.935 18.486 47.839 18.234V19.816C47.3489 20.306 46.915 20.586 46.327 20.586Z" fill="white"/>
<path d="M51.5864 22H53.6304V17.324C54.0784 16.19 54.8204 15.784 55.4364 15.784C55.7584 15.784 55.9824 15.826 56.2484 15.91L56.6124 14.132C56.3744 14.034 56.1224 13.964 55.6884 13.964C54.8764 13.964 54.0364 14.524 53.4624 15.546H53.4064L53.2664 14.16H51.5864V22Z" fill="white"/>
<path d="M58.7706 22.196C59.6666 22.196 60.4506 21.748 61.1366 21.16H61.1786L61.3326 22H63.0126V17.422C63.0126 15.154 61.9906 13.964 60.0026 13.964C58.7706 13.964 57.6506 14.426 56.7266 15L57.4686 16.358C58.1966 15.938 58.8966 15.616 59.6246 15.616C60.5906 15.616 60.9266 16.204 60.9546 16.974C57.8046 17.31 56.4466 18.192 56.4466 19.872C56.4466 21.202 57.3706 22.196 58.7706 22.196ZM59.4426 20.586C58.8406 20.586 58.4066 20.32 58.4066 19.704C58.4066 19.004 59.0506 18.486 60.9546 18.234V19.816C60.4646 20.306 60.0306 20.586 59.4426 20.586Z" fill="white"/>
<path d="M67.3123 22.196C67.9983 22.196 68.5443 22.042 68.9643 21.902L68.6283 20.404C68.4183 20.488 68.1103 20.572 67.8583 20.572C67.1583 20.572 66.7943 20.152 66.7943 19.256V15.784H68.7263V14.16H66.7943V12.06H65.0723L64.8343 14.16L63.6303 14.258V15.784H64.7363V19.256C64.7363 21.02 65.4503 22.196 67.3123 22.196Z" fill="white"/>
<path d="M69.9132 22H71.9572V14.16H69.9132V22ZM70.9492 12.9C71.6492 12.9 72.1672 12.424 72.1672 11.78C72.1672 11.108 71.6492 10.66 70.9492 10.66C70.2352 10.66 69.7172 11.108 69.7172 11.78C69.7172 12.424 70.2352 12.9 70.9492 12.9Z" fill="white"/>
<path d="M77.0332 22.196C78.9932 22.196 80.7992 20.684 80.7992 18.094C80.7992 15.476 78.9932 13.964 77.0332 13.964C75.0732 13.964 73.2672 15.476 73.2672 18.094C73.2672 20.684 75.0732 22.196 77.0332 22.196ZM77.0332 20.516C75.9692 20.516 75.3672 19.564 75.3672 18.094C75.3672 16.61 75.9692 15.644 77.0332 15.644C78.0972 15.644 78.6992 16.61 78.6992 18.094C78.6992 19.564 78.0972 20.516 77.0332 20.516Z" fill="white"/>
<path d="M82.1128 22H84.1568V16.61C84.7448 16.036 85.1508 15.728 85.7948 15.728C86.5648 15.728 86.9008 16.162 86.9008 17.366V22H88.9588V17.114C88.9588 15.14 88.2308 13.964 86.5368 13.964C85.4728 13.964 84.6748 14.524 83.9888 15.196H83.9328L83.7928 14.16H82.1128V22Z" fill="white"/>
</svg>
